<svg xmlns="http://www.w3.org/2000/svg" width="18" height="14" viewBox="1165 36 18 14"><path d="M1183 37.657a7.609 7.609 0 0 1-2.121.557 3.574 3.574 0 0 0 1.624-1.956 7.59 7.59 0 0 1-2.345.858 3.767 3.767 0 0 0-2.696-1.116c-2.04 0-3.693 1.583-3.693 3.534 0 .277.033.547.096.806-3.07-.147-5.79-1.554-7.612-3.693a3.403 3.403 0 0 0-.5 1.777c0 1.226.652 2.308 1.643 2.942a3.807 3.807 0 0 1-1.673-.443v.045c0 1.712 1.273 3.14 2.963 3.466a3.861 3.861 0 0 1-1.668.06c.47 1.404 1.834 2.426 3.45 2.454a7.622 7.622 0 0 1-4.587 1.514c-.298 0-.592-.017-.881-.05a10.797 10.797 0 0 0 5.66 1.588c6.794 0 10.508-5.385 10.508-10.056 0-.153-.003-.306-.01-.457a7.33 7.33 0 0 0 1.842-1.83Z" fill="rgba(215, 222, 228, 1)" fill-rule="evenodd" data-name="Shape 8"/></svg>