<svg xmlns="http://www.w3.org/2000/svg" width="16" height="11" viewBox="1064 36 16 11"><path d="M1078.997 47h-13.994a1.007 1.007 0 0 1-1.003-1.008v-8.984c0-.556.45-1.008 1.003-1.008h13.994a1.006 1.006 0 0 1 1.003 1.008v8.984c0 .556-.45 1.008-1.003 1.008Zm-7.022-3.669a.475.475 0 0 0 .252-.101l6.07-4.803a.496.496 0 0 0 .005-.005.498.498 0 0 0 .08-.686.496.496 0 0 0-.034-.04.477.477 0 0 0-.445-.14.476.476 0 0 0-.199.093l-5.77 4.566-5.634-4.579a.49.49 0 0 0-.033-.024.476.476 0 0 0-.418-.059.482.482 0 0 0-.228.161.501.501 0 0 0-.013.018c-.071.1-.1.218-.09.333a.494.494 0 0 0 .18.341l5.93 4.82a.49.49 0 0 0 .013.01.477.477 0 0 0 .288.097.448.448 0 0 0 .001 0 .479.479 0 0 0 .006 0c.013 0 .026 0 .039-.002Z" fill="rgba(215, 222, 228, 1)" fill-rule="evenodd" data-name="Shape 9"/></svg>